<?xml version="1.0" encoding="utf-8"?>
<!-- Generator: Adobe Illustrator 21.0.0, SVG Export Plug-In . SVG Version: 6.00 Build 0)  -->
<svg version="1.1" id="圖層_1" xmlns="http://www.w3.org/2000/svg" xmlns:xlink="http://www.w3.org/1999/xlink" x="0px" y="0px"
	 viewBox="0 0 55 55" style="enable-background:new 0 0 55 55;" xml:space="preserve">
<style type="text/css">
	.st0{fill-rule:evenodd;clip-rule:evenodd;fill:#2D2F91;}
	.st1{fill-rule:evenodd;clip-rule:evenodd;fill:#FFFFFF;}
</style>
<rect class="st0" width="55" height="55"/>
<path class="st1" d="M40.3,27.4c0.3,0.3,0.3,0.8,0,1.1c-0.3,0.3-0.8,0.3-1.1,0L28.3,17.7v21.5c0,0.4-0.4,0.8-0.8,0.8
	s-0.8-0.4-0.8-0.8V17.7L15.9,28.5c-0.3,0.3-0.8,0.3-1.1,0c-0.3-0.3-0.3-0.8,0-1.1l12.2-12.2l0,0l0,0l0,0l0,0l0,0l0,0l0,0l0,0l0,0
	l0,0l0,0h0l0,0h0l0,0l0,0h0l0,0h0l0,0h0v0h0h0l0,0l0,0l0,0h0h0h0v0h0l0.1,0h0l0,0h0h0l0,0h0h0h0h0h0h0h0h0l0,0h0h0l0,0h0l0.1,0h0v0
	h0h0h0l0,0l0,0h0l0,0h0h0v0h0l0,0h0l0,0h0l0,0l0,0h0l0,0l0,0l0,0l0,0l0,0l0,0l0,0l0,0l0,0l0,0l0,0L40.3,27.4z"/>
</svg>
