<?xml version="1.0" encoding="utf-8"?>
<!-- Generator: Adobe Illustrator 21.0.0, SVG Export Plug-In . SVG Version: 6.00 Build 0)  -->
<svg version="1.1" id="圖層_1" xmlns="http://www.w3.org/2000/svg" xmlns:xlink="http://www.w3.org/1999/xlink" x="0px" y="0px"
	 viewBox="0 0 14 13" style="enable-background:new 0 0 14 13;" xml:space="preserve">
<path d="M13.9,6L8.4,0.6c-0.8-0.8-2.1-0.8-2.9,0L0.1,6C0,6.2,0,6.4,0.1,6.6c0.2,0.2,0.4,0.2,0.6,0l0.3-0.3v5.5
	c0,0.7,0.6,1.3,1.3,1.3h2.2c0.2,0,0.3-0.1,0.3-0.3v-4c0-0.8,0.6-1.3,1.4-1.3h1.6c0.8,0,1.4,0.6,1.4,1.3v4c0,0.1,0.1,0.3,0.3,0.3h2.2
	c0.7,0,1.3-0.6,1.3-1.3V6.3l0.3,0.3c0.1,0.1,0.2,0.1,0.3,0.1s0.2,0,0.3-0.1C14,6.4,14,6.2,13.9,6z"/>
</svg>
