<?xml version="1.0" encoding="utf-8"?>
<!-- Generator: Adobe Illustrator 21.0.0, SVG Export Plug-In . SVG Version: 6.00 Build 0)  -->
<svg version="1.1" id="圖層_1" xmlns="http://www.w3.org/2000/svg" xmlns:xlink="http://www.w3.org/1999/xlink" x="0px" y="0px"
	 viewBox="0 0 30 24" style="enable-background:new 0 0 30 24;" xml:space="preserve">
<path d="M0.8,20.4l-0.8,3l3.1-0.5l0.4,0c0.7-0.1,1.3-0.2,2-0.2c1.4,0,2.8,0.2,4.1,0.6c1.1,0.3,2.3,0.5,3.5,0.5c0.4,0,0.7,0,1.1,0
	c-0.8-0.6-1.6-1.3-2.2-2.1c-0.6-0.1-1.2-0.2-1.8-0.3c-1.5-0.4-3.1-0.6-4.7-0.6c-0.8,0-1.6,0.1-2.3,0.2l-0.4,0l0-0.1
	c0.6-2.1,0.6-4.4,0-6.6c-0.2-0.8-0.3-1.5-0.3-2.3C2.5,6.4,7.3,2,13.2,2c3.1,0,5.9,1.3,7.9,3.2c1,0,2,0.2,3,0.5
	C21.8,2.3,17.8,0,13.2,0C6.2,0,0.5,5.3,0.5,11.9c0,0.9,0.1,1.9,0.4,2.8c0.5,1.9,0.5,3.8,0,5.5L0.8,20.4z M25.3,17.2
	c-0.8,0-1.5-0.6-1.5-1.4c0-0.8,0.7-1.4,1.5-1.4s1.4,0.6,1.4,1.4C26.8,16.5,26.1,17.2,25.3,17.2z M16.2,14.4c0.8,0,1.4,0.6,1.4,1.4
	c0,0.8-0.6,1.4-1.4,1.4c-0.8,0-1.5-0.6-1.5-1.4C14.7,15,15.4,14.4,16.2,14.4z M20.8,14.4c0.8,0,1.4,0.6,1.4,1.4
	c0,0.8-0.6,1.4-1.4,1.4c-0.8,0-1.4-0.6-1.4-1.4C19.3,15,20,14.4,20.8,14.4z M30,15.5c0-4.7-4.1-8.5-9.2-8.5s-9.2,3.8-9.2,8.5
	s4.1,8.5,9.2,8.5c0.9,0,1.8-0.1,2.6-0.3c1.3-0.4,2.7-0.5,4.1-0.5c0.7,0,1.4,0,2,0.1l0.3,0l0-0.1c-0.5-1.9-0.5-3.8,0-5.7
	C29.9,16.8,30,16.2,30,15.5z"/>
</svg>
