<?xml version="1.0" encoding="utf-8"?>
<!-- Generator: Adobe Illustrator 21.0.0, SVG Export Plug-In . SVG Version: 6.00 Build 0)  -->
<svg version="1.1" id="圖層_1" xmlns="http://www.w3.org/2000/svg" xmlns:xlink="http://www.w3.org/1999/xlink" x="0px" y="0px"
	 viewBox="0 0 37 35" style="enable-background:new 0 0 37 35;" xml:space="preserve">
<path d="M21.9,15.1V0h-6.8v15.1h-3.7l7.1,12.9l7.1-12.9H21.9z M18.5,35C8.3,35,0,27,0,17.1c0-3.9,1.3-7.6,3.7-10.7
	c2.1-2.8,5.1-4.9,8.4-6.1v4.6C9.8,6,8,7.6,6.6,9.7c-1.5,2.2-2.2,4.8-2.2,7.4c0,7.6,6.3,13.7,14.1,13.7s14.1-6.1,14.1-13.7
	c0-2.6-0.8-5.2-2.2-7.4C29,7.6,27.2,6,25,4.9V0.3c3.3,1.2,6.3,3.3,8.4,6.1c2.4,3.1,3.7,6.8,3.7,10.7C37,27,28.7,35,18.5,35z"/>
</svg>
