<?xml version="1.0" encoding="utf-8"?>
<!-- Generator: Adobe Illustrator 21.0.0, SVG Export Plug-In . SVG Version: 6.00 Build 0)  -->
<svg version="1.1" id="圖層_1" xmlns="http://www.w3.org/2000/svg" xmlns:xlink="http://www.w3.org/1999/xlink" x="0px" y="0px"
	 viewBox="0 0 35 35" style="enable-background:new 0 0 35 35;" xml:space="preserve">
<path d="M11.4,7.7l6.1,0.4l0.8,4l-5.2,0L11.4,7.7z M19.5,17.8l-4,0.6l-1.9-4.9l4.9,0L19.5,17.8z M24.6,8.5l0.3,3.5l-5.1,0L19,8.2
	L24.6,8.5z M25.4,16.8l-4.5,0.7l-0.8-4l5,0L25.4,16.8z M32,9L32,12l-5.5,0l-0.3-3.4L32,9z M31.9,15.8l-5,0.8l-0.3-3.1l5.4,0
	L31.9,15.8z M33.3,25.1H13.3c-1,0-1.5-0.7-1.5-1.4c-0.1-1,0.7-1.7,2.1-2c6.1-1.1,19.6-3.1,19.7-3.2c0.7-0.1,1.2-0.7,1.3-1.4L35,7.6
	c0-0.8-0.6-1.5-1.4-1.5L10.3,4.6L8.9,1C8.7,0.4,8.1,0,7.5,0h-6C0.7,0,0,0.7,0,1.5C0,2.3,0.7,3,1.5,3h5l6.1,16c-2.8,0.8-3.9,3-3.8,5
	c0.2,2.4,2.1,4.2,4.4,4.2h20.1c0.8,0,1.5-0.7,1.5-1.5C34.8,25.8,34.2,25.1,33.3,25.1z M13.7,29.6c-1.5,0-2.7,1.2-2.7,2.7
	s1.2,2.7,2.7,2.7s2.7-1.2,2.7-2.7S15.1,29.6,13.7,29.6z M31.2,29.6c-1.5,0-2.6,1.2-2.6,2.7s1.2,2.7,2.6,2.7c1.5,0,2.7-1.2,2.7-2.7
	S32.7,29.6,31.2,29.6z"/>
</svg>
