<?xml version="1.0" encoding="utf-8"?>
<!-- Generator: Adobe Illustrator 21.0.0, SVG Export Plug-In . SVG Version: 6.00 Build 0)  -->
<svg version="1.1" id="圖層_1" xmlns="http://www.w3.org/2000/svg" xmlns:xlink="http://www.w3.org/1999/xlink" x="0px" y="0px"
	 viewBox="0 0 26 18" style="enable-background:new 0 0 26 18;" xml:space="preserve">
<path d="M17.6,17.8c-0.2,0.2-0.5,0.2-0.8,0c-0.2-0.2-0.2-0.6,0-0.8l7.4-7.5H0.5C0.2,9.5,0,9.3,0,9c0-0.3,0.2-0.6,0.5-0.6h23.6
	l-7.4-7.5c-0.2-0.2-0.2-0.6,0-0.8c0.2-0.2,0.6-0.2,0.8,0l8.3,8.4l0,0l0,0l0,0l0,0l0,0v0l0,0v0h0v0h0v0v0h0v0l0,0l0,0l0,0v0l0,0l0,0
	v0l0,0v0l0,0l0,0v0v0l0,0v0l0,0l0,0l0,0v0l0,0v0v0l0,0v0v0v0v0v0v0v0v0l0,0v0v0l0,0v0l0,0l0,0l0,0v0l0,0v0v0l0,0v0h0v0l0,0v0l0,0
	l0,0v0l0,0l0,0l0,0v0h0v0l0,0l0,0v0l0,0v0l0,0l0,0l0,0l0,0l0,0L17.6,17.8z"/>
</svg>
