<?xml version="1.0" encoding="utf-8"?>
<!-- Generator: Adobe Illustrator 21.0.0, SVG Export Plug-In . SVG Version: 6.00 Build 0)  -->
<svg version="1.1" id="圖層_1" xmlns="http://www.w3.org/2000/svg" xmlns:xlink="http://www.w3.org/1999/xlink" x="0px" y="0px"
	 viewBox="0 0 14 14" style="enable-background:new 0 0 14 14;" xml:space="preserve">
<path d="M3.1,14H0.2V4.7h2.9V14z M1.7,3.4C0.8,3.4,0,2.6,0,1.7C0,0.8,0.8,0,1.7,0c0.9,0,1.7,0.8,1.7,1.7C3.4,2.6,2.6,3.4,1.7,3.4z
	 M14,14h-2.9V9.4c0-1.1,0-2.5-1.5-2.5C8.1,7,7.9,8.2,7.9,9.4V14H5V4.7h2.8v1.3h0c0.4-0.7,1.3-1.5,2.7-1.5c2.9,0,3.5,1.9,3.5,4.4
	L14,14L14,14z"/>
</svg>
