<?xml version="1.0" encoding="utf-8"?>
<!-- Generator: Adobe Illustrator 21.0.0, SVG Export Plug-In . SVG Version: 6.00 Build 0)  -->
<svg version="1.1" id="圖層_1" xmlns="http://www.w3.org/2000/svg" xmlns:xlink="http://www.w3.org/1999/xlink" x="0px" y="0px"
	 viewBox="0 0 42 42" style="enable-background:new 0 0 42 42;" xml:space="preserve">
<path d="M21,0C9.4,0,0,9.4,0,21s9.4,21,21,21s21-9.4,21-21S32.6,0,21,0z M21,39.8C10.6,39.8,2.3,31.4,2.3,21S10.6,2.3,21,2.3
	c10,0,18.1,7.8,18.7,17.7H21.3l1.5-1.7c0.1-0.1,0.2-0.3,0.3-0.4c0.1-0.1,0.1-0.3,0.1-0.4c0-0.1,0-0.3-0.1-0.4c0-0.1-0.1-0.2-0.2-0.3
	c-0.1-0.1-0.2-0.2-0.3-0.2c-0.1-0.1-0.2-0.1-0.4-0.1c-0.1,0-0.3,0-0.4,0.1c-0.1,0.1-0.3,0.1-0.4,0.3l-3,3.3
	c-0.1,0.2-0.2,0.3-0.3,0.4C18,20.7,18,20.8,18,21s0,0.3,0.1,0.4c0.1,0.1,0.2,0.3,0.3,0.4l3,3.3c0.1,0.1,0.3,0.2,0.4,0.3
	c0.1,0.1,0.3,0.1,0.4,0.1c0.1,0,0.2,0,0.4-0.1c0.1-0.1,0.2-0.1,0.3-0.2c0.1-0.1,0.2-0.2,0.2-0.3c0.1-0.1,0.1-0.2,0.1-0.4
	c0-0.2,0-0.3-0.1-0.4c0-0.1-0.2-0.3-0.3-0.4l-1.5-1.7h18.4C39.1,31.9,31,39.8,21,39.8z"/>
</svg>
