<?xml version="1.0" encoding="utf-8"?>
<!-- Generator: Adobe Illustrator 21.0.0, SVG Export Plug-In . SVG Version: 6.00 Build 0)  -->
<svg version="1.1" id="圖層_1" xmlns="http://www.w3.org/2000/svg" xmlns:xlink="http://www.w3.org/1999/xlink" x="0px" y="0px"
	 viewBox="0 0 17.2 14" style="enable-background:new 0 0 17.2 14;" xml:space="preserve">
<path d="M11.6,4.2c0.2,0,0.4,0,0.6,0C11.7,1.8,9.1,0,6.1,0C2.7,0,0,2.3,0,5.2c0,1.7,0.9,3,2.4,4.1l-0.6,1.8L4,10
	c0.8,0.1,1.4,0.3,2.1,0.3c0.2,0,0.4,0,0.6,0C6.5,9.9,6.5,9.5,6.5,9.1C6.5,6.4,8.7,4.2,11.6,4.2z M8.4,2.6c0.5,0,0.8,0.3,0.8,0.8
	c0,0.5-0.3,0.8-0.8,0.8c-0.5,0-0.9-0.3-0.9-0.8C7.5,2.9,7.9,2.6,8.4,2.6z M4.1,4.1c-0.5,0-0.9-0.3-0.9-0.8c0-0.5,0.5-0.8,0.9-0.8
	c0.5,0,0.8,0.3,0.8,0.8C4.9,3.8,4.6,4.1,4.1,4.1z M17.2,9c0-2.4-2.4-4.4-5.2-4.4c-2.9,0-5.2,2-5.2,4.4s2.3,4.4,5.2,4.4
	c0.6,0,1.2-0.2,1.8-0.3l1.7,0.9l-0.5-1.5C16.3,11.6,17.2,10.4,17.2,9z M10.3,8.2c-0.3,0-0.6-0.3-0.6-0.6C9.7,7.3,10,7,10.3,7
	c0.5,0,0.8,0.3,0.8,0.6C11.1,7.9,10.8,8.2,10.3,8.2z M13.7,8.2c-0.3,0-0.6-0.3-0.6-0.6c0-0.3,0.3-0.6,0.6-0.6c0.5,0,0.8,0.3,0.8,0.6
	C14.5,7.9,14.1,8.2,13.7,8.2z"/>
</svg>
