<?xml version="1.0" encoding="utf-8"?>
<!-- Generator: Adobe Illustrator 21.0.0, SVG Export Plug-In . SVG Version: 6.00 Build 0)  -->
<svg version="1.1" id="圖層_1" xmlns="http://www.w3.org/2000/svg" xmlns:xlink="http://www.w3.org/1999/xlink" x="0px" y="0px"
	 viewBox="0 0 16 16" style="enable-background:new 0 0 16 16;" xml:space="preserve">
<path d="M14.9,6.9c-0.6,0-1.1,0.5-1.1,1.1c0,3.2-2.6,5.8-5.8,5.8S2.3,11.2,2.3,8S4.8,2.3,8,2.3c1.3,0,2.6,0.4,3.6,1.3h-0.9
	C10,3.5,9.5,4,9.5,4.6s0.5,1.1,1.1,1.1h3.5c0.6,0,1.1-0.5,1.1-1.1V1.1c0-0.6-0.5-1.1-1.1-1.1C13.5,0,13,0.5,13,1.1v0.7
	C11.6,0.6,9.9,0,8,0C3.6,0,0,3.6,0,8s3.6,8,8,8s8-3.6,8-8C16,7.4,15.5,6.9,14.9,6.9z"/>
</svg>
