<?xml version="1.0" encoding="utf-8"?>
<!-- Generator: Adobe Illustrator 21.0.0, SVG Export Plug-In . SVG Version: 6.00 Build 0)  -->
<svg version="1.1" id="圖層_1" xmlns="http://www.w3.org/2000/svg" xmlns:xlink="http://www.w3.org/1999/xlink" x="0px" y="0px"
	 viewBox="0 0 213.4 203.3" style="enable-background:new 0 0 213.4 203.3;" xml:space="preserve">
<g transform="translate(1.4065934065934016 1.4065934065934016) scale(2.81 2.81)">
	<path d="M63,10C56.2,3.2,47.2-0.5,37.6-0.5C17.9-0.5,1.8,15.6,1.8,35.3c0,6.3,1.6,12.5,4.8,17.9L1.5,71.8l19-5
		c5.2,2.9,11.1,4.4,17.1,4.4h0c0,0,0,0,0,0c19.8,0,35.8-16.1,35.9-35.9C73.5,25.8,69.8,16.8,63,10z M23.1,36.7
		c-0.4-0.6-3.7-4.9-3.7-9.3s2.3-6.6,3.1-7.5c0.8-0.9,1.8-1.1,2.4-1.1s1.2,0,1.7,0c0.5,0,1.3-0.2,2,1.5c0.7,1.8,2.5,6.2,2.8,6.7
		c0.2,0.4,0.4,1,0.1,1.6c-0.3,0.6-0.4,1-0.9,1.5s-0.9,1.2-1.3,1.6c-0.4,0.4-0.9,0.9-0.4,1.8c0.5,0.9,2.3,3.8,5,6.2
		c3.4,3.1,6.3,4,7.2,4.4s1.4,0.4,1.9-0.2c0.5-0.6,2.2-2.6,2.8-3.5c0.6-0.9,1.2-0.7,2-0.4c0.8,0.3,5.2,2.5,6.1,2.9
		c0.9,0.4,1.5,0.7,1.7,1s0.2,2.2-0.5,4.3c-0.7,2.1-4.3,4-6,4.3c-1.5,0.2-3.5,0.3-5.6-0.4c-1.3-0.4-3-1-5.1-1.9
		C29.4,46.3,23.5,37.3,23.1,36.7z"/>
</g>
</svg>
