<?xml version="1.0" encoding="utf-8"?>
<!-- Generator: Adobe Illustrator 21.0.0, SVG Export Plug-In . SVG Version: 6.00 Build 0)  -->
<svg version="1.1" id="圖層_1" xmlns="http://www.w3.org/2000/svg" xmlns:xlink="http://www.w3.org/1999/xlink" x="0px" y="0px"
	 viewBox="0 0 19 19" style="enable-background:new 0 0 19 19;" xml:space="preserve">
<style type="text/css">
	
		.st0{fill-rule:evenodd;clip-rule:evenodd;fill:#FFFFFF;stroke:#FFFFFF;stroke-linecap:round;stroke-linejoin:round;stroke-miterlimit:10;}
</style>
<path class="st0" d="M13.1,2.7V1.9H5.9v0.7H13.1z M4.8,4.1c0.3,0,0.6-0.2,0.6-0.5V1c0-0.3-0.3-0.5-0.6-0.5C4.5,0.5,4.2,0.7,4.2,1
	v2.5C4.2,3.8,4.5,4.1,4.8,4.1z M14.2,4.1c0.3,0,0.6-0.2,0.6-0.5V1c0-0.3-0.3-0.5-0.6-0.5c-0.3,0-0.6,0.2-0.6,0.5v2.5
	C13.6,3.8,13.9,4.1,14.2,4.1z M16.1,10.4V9.7h-2.6V7.3h-0.8v2.4H9.9V7.3H9.1v2.4H6.2V7.3H5.5v2.4H2.9v0.7h2.6v3.2H2.9v0.7h2.6v2.4
	h0.8v-2.4h2.9v2.4h0.8v-2.4h2.9v2.4h0.8v-2.4h2.6v-0.7h-2.6v-3.2H16.1z M6.2,10.4h2.9v3.2H6.2V10.4z M9.9,10.4h2.9v3.2H9.9V10.4z
	 M16.6,18.5c1,0,1.9-0.8,1.9-1.8v-13c0-1-0.8-1.8-1.9-1.8h-1.4v0.7h1.4c0.6,0,1.1,0.5,1.1,1.1v2H1.3v-2c0-0.6,0.5-1.1,1.1-1.1h1.4
	V1.9H2.4c-1,0-1.9,0.8-1.9,1.8v13c0,1,0.8,1.8,1.9,1.8H16.6z M17.8,6.5v10.2c0,0.6-0.5,1.1-1.1,1.1H2.4c-0.6,0-1.1-0.5-1.1-1.1V6.5
	H17.8z"/>
</svg>
