<?xml version="1.0" encoding="utf-8"?>
<!-- Generator: Adobe Illustrator 21.0.0, SVG Export Plug-In . SVG Version: 6.00 Build 0)  -->
<svg version="1.1" id="圖層_1" xmlns="http://www.w3.org/2000/svg" xmlns:xlink="http://www.w3.org/1999/xlink" x="0px" y="0px"
	 viewBox="0 0 17.1 12" style="enable-background:new 0 0 17.1 12;" xml:space="preserve">
<path d="M16.7,1.9c-0.2-0.7-0.8-1.3-1.5-1.5C13.9,0,8.5,0,8.5,0S3.2,0,1.9,0.4C1.1,0.6,0.6,1.1,0.4,1.9C0,3.2,0,6,0,6s0,2.8,0.4,4.1
	c0.2,0.7,0.8,1.3,1.5,1.5C3.2,12,8.5,12,8.5,12s5.3,0,6.7-0.4c0.7-0.2,1.3-0.8,1.5-1.5C17.1,8.8,17.1,6,17.1,6S17.1,3.2,16.7,1.9z
	 M6.8,8.6V3.5L11.3,6C11.3,6,6.8,8.5,6.8,8.6z"/>
</svg>
