<?xml version="1.0" encoding="utf-8"?>
<!-- Generator: Adobe Illustrator 21.0.0, SVG Export Plug-In . SVG Version: 6.00 Build 0)  -->
<svg version="1.1" id="圖層_1" xmlns="http://www.w3.org/2000/svg" xmlns:xlink="http://www.w3.org/1999/xlink" x="0px" y="0px"
	 viewBox="0 0 219.6 31.6" style="enable-background:new 0 0 219.6 31.6;" xml:space="preserve">
<style type="text/css">
	.st0{fill-rule:evenodd;clip-rule:evenodd;fill:#2D2F91;}
	.st1{fill:#2D2F91;}
</style>
<path class="st0" d="M213.1,13.3l-0.7,1.9h-1.1l0.1-0.1c0.1-0.2,0.3-0.4,0.3-0.8c0-0.4-0.2-0.9-0.6-1.2c-0.7-0.6-1.4-0.6-1.8-0.6
	c-0.1,0-0.2,0-0.3,0h-5.6l-0.1,0c-0.1,0-0.9,0.1-1.6,0.8c-0.6,0.6-1.1,1.6-1.2,1.6l0,0l-3.4,9.1c0,0.1-0.3,0.8-0.3,1.6
	c0,0.4,0,0.8,0.4,1.3c0.8,0.9,1.9,1,1.9,1.1l0.1,0h5.3c0.1,0,0.5,0,0.9-0.1c0.4-0.1,1-0.1,1.4-0.9c0.3-0.6,0.7-2,0.7-2.1l1-2.7h-2.8
	l0.2-0.8h4.2l-2.4,7.8l-10.7,0l0,0c-0.2,0-0.7-0.2-1.3-0.9c-0.5-0.7-0.6-1.3-0.6-1.8c0-0.3,0-0.5,0.1-0.7c0.1-0.2,0.1-0.2,0.1-0.2
	l0-0.1l4.3-12.4l0-0.1c0.1-0.2,0.5-0.8,1.2-1.2c0.9-0.6,1.7-0.6,1.8-0.6l9.6,0l0,0c0.2,0.1,0.6,0.2,1,0.7v0.1
	C213.4,12.5,213.1,13.3,213.1,13.3z M212.5,9.6L212.5,9.6l-9.7,0h-0.1c-0.3,0-1.4,0.1-2.7,0.9c-1.4,0.9-1.9,2-2,2.1L193.8,25
	c-0.1,0.2-0.3,0.8-0.3,1.6c0,0.8,0.2,1.8,1,2.8c0.9,1.2,2,1.5,2.5,1.6l0,0l12.2,0l3.4-11.3h-7.9l-1.3,4.3h2.7l-0.1,0.4
	c0,0-0.4,1.3-0.6,1.7l-0.1,0c-0.3,0.1-0.7,0.2-0.8,0.2h-5.1c-0.1,0-0.2-0.1-0.3-0.1c-0.2-0.1-0.4-0.2-0.5-0.3c0,0,0-0.1,0-0.2
	c0-0.4,0.2-1,0.2-1l3.3-9c0.1-0.2,0.6-0.9,0.8-1.2c0.1-0.1,0.3-0.2,0.4-0.2c0.1,0,0.1-0.1,0.2-0.1h5.5l0.1,0h0.1c0.1,0,0.3,0,0.4,0
	c0.1,0,0.1,0,0.1,0.1l-1,2.7h4.9l1.1-3c0,0,0.4-0.9,0.4-1.8c0-0.3,0-0.7-0.3-1C213.9,9.7,212.7,9.6,212.5,9.6z"/>
<path class="st0" d="M21.2,25.1c0,0-0.1,0.4-0.4,1c-0.3,0.6-0.8,1.3-1.4,2c-0.8,0.9-3.4,1.1-4,1.1h-0.1l-9.6,0.1
	c-0.2-0.1-0.6-0.2-1.1-0.4c-0.7-0.3-1.4-0.8-1.8-1.3c-0.3-0.5-0.4-1-0.4-1.6c0-0.5,0.1-1,0.2-1.4c0.1-0.4,0.2-0.5,0.2-0.5l0,0
	L9.7,5.4l0.1-0.2c0.2-0.4,0.7-1.3,1.7-2c1.1-0.7,1.8-0.8,1.9-0.8l0,0l13.1,0.1c0.1,0,0.3,0.1,0.6,0.2c0.4,0.1,0.7,0.4,0.7,0.5
	c0.4,0.7,0.5,1.3,0.5,1.6c0,0.3-0.1,0.5-0.1,0.6c0,0.1-0.1,0.1-0.1,0.1l-0.1,0.1l-1.2,3.5h-1.7l0.3-0.8C25.7,8.1,26,7.6,26,6.8
	c0-0.5-0.2-1.2-0.6-1.7c-1-1.1-2.2-1.2-2.7-1.2l-0.2,0H15H15c0,0-0.5,0-1.1,0.2c-0.5,0.2-1.3,0.3-1.9,1.3C11.6,6.1,10.8,8,10.8,8
	l0,0L5.3,22.8c-0.1,0.3-0.4,1-0.5,1.9c0,0.4,0.1,0.8,0.3,1.3c0.7,1,1.5,1.1,2.1,1.2c0.7,0.1,1.2,0.1,1.2,0.1h6.6
	c0.1-0.1,1.8,0.2,3.1-1.2c0.8-0.9,1.4-2.1,1.4-2.1l0-0.1l0.6-1.7l2,0L21.2,25.1z M18.6,19.9L17.4,23c0,0.1-0.1,0.3-0.3,0.5
	c-0.2,0.3-0.5,0.8-0.7,1.1c0,0-0.3,0.2-0.7,0.3C15.3,25,15.1,25,15.1,25H8.5c0,0-0.4,0-0.8-0.1c-0.2,0-0.4-0.1-0.5-0.1l0,0v-0.1
	c0-0.2,0.1-0.4,0.1-0.6c0.1-0.2,0.1-0.3,0.1-0.3l0-0.1l5.5-14.7c0.1-0.3,0.8-1.7,1.1-2.4l0.1,0c0.2-0.1,0.4-0.1,0.6-0.2
	c0.2,0,0.3,0,0.3,0h7.6h0.1c0.1,0,0.6,0.1,0.9,0.4c0.1,0.1,0.1,0.1,0.1,0.1c0,0,0,0.1-0.1,0.2l0,0.1l-0.1,0.1l-1.7,4.3h6.8l1.7-4.8
	c0.2-0.3,0.5-1,0.5-1.9C30.7,4,30.5,3,29.9,2c-1.1-1.6-2.9-1.7-3-1.8l-0.1,0L13.6,0.1l-0.1,0c-0.5,0-1.7,0.2-3.2,1.2
	c-2,1.4-2.6,3.3-2.7,3.4L0.6,23.2C0.5,23.4,0,24.6,0,26c0,0.9,0.2,1.9,0.8,2.9c1.5,2.2,4.3,2.6,4.4,2.7l0.1,0l9.8-0.1h0.1
	c0.8-0.1,3.7,0,5.7-1.8c1.8-1.8,2.4-3.8,2.4-3.9l2.1-6.1L18.6,19.9z"/>
<path class="st0" d="M48,29.2h-2.8L39.7,4.9l-9.5,24.3h-1.6l9.8-26.6h3.4L46.9,26l9.3-23.5l2,0L48,29.2z M54.6,0.1l-7,17.8L43.7,0.2
	h-6.9L36.5,1L25.3,31.5h6.6l7.2-18.6l4.1,18.6h6.3L61.5,0.3L54.6,0.1z"/>
<path class="st0" d="M80.8,9.2l0.3-0.8c0.2-0.3,0.5-0.8,0.5-1.5c0-0.5-0.2-1.2-0.6-1.7C80,4.1,78.8,4,78.3,4l-0.2,0h-7.5h-0.1
	c0,0-0.5,0-1.1,0.2c-0.6,0.2-1.3,0.3-1.9,1.3C67.2,6.1,66.3,8,66.3,8l0,0l-5.5,14.7c-0.1,0.3-0.5,1-0.5,1.9c0,0.4,0.1,0.8,0.3,1.3
	c0.7,1,1.5,1.1,2.2,1.2c0.6,0.1,1.2,0.1,1.2,0.1h6.6c0.1-0.1,1.8,0.2,3.1-1.2c0.8-0.9,1.4-2.1,1.4-2.1l0-0.1l0.6-1.7l2,0l-1,2.9
	c0,0-0.1,0.4-0.4,1s-0.8,1.3-1.4,2c-0.8,0.9-3.5,1.1-4,1.1h-0.1l-9.6,0.1c-0.2-0.1-0.6-0.2-1.1-0.4c-0.7-0.3-1.4-0.8-1.8-1.3
	c-0.3-0.5-0.4-1-0.4-1.6c0-0.5,0.1-1,0.2-1.4c0.1-0.4,0.2-0.5,0.2-0.5l0,0l6.9-18.6c0,0,0-0.1,0.1-0.2c0.2-0.4,0.7-1.3,1.7-2
	c1.1-0.7,1.8-0.8,1.9-0.8l0,0l13.1,0.1c0.1,0,0.3,0.1,0.6,0.2c0.4,0.1,0.7,0.4,0.8,0.5c0.4,0.7,0.5,1.3,0.5,1.6l0,0l-1.4,4.3H80.8z
	 M85.4,2c-1.1-1.6-2.9-1.7-3-1.8l-0.1,0L69.1,0.1H69c-0.5,0-1.7,0.1-3.2,1.2c-2,1.4-2.7,3.2-2.7,3.4l-6.9,18.5
	c-0.1,0.3-0.6,1.4-0.6,2.8c0,0.9,0.2,1.9,0.8,2.9c1.5,2.2,4.3,2.6,4.4,2.7l0.1,0l9.8-0.1h0.1c0.8-0.1,3.7,0,5.7-1.8
	c1.8-1.8,2.4-3.8,2.4-3.9l2-5.9h-6.8L73,23c0,0.1-0.2,0.3-0.3,0.5c-0.2,0.3-0.5,0.8-0.8,1.1c0,0-0.4,0.2-0.7,0.3
	C70.9,25,70.6,25,70.6,25H64c0,0-0.4,0-0.8-0.1c-0.2,0-0.4-0.1-0.5-0.1l0,0l0-0.1c0-0.2,0.1-0.4,0.1-0.6c0.1-0.2,0.1-0.3,0.1-0.3
	l0-0.1l5.5-14.7c0.1-0.3,0.8-1.7,1.1-2.4l0.1,0c0.2-0.1,0.4-0.1,0.6-0.2l0.3,0h7.6h0.1c0.2,0,0.6,0.1,0.9,0.4c0.1,0.1,0,0.1,0,0.1
	c0,0,0,0.1-0.1,0.2l0,0.1L79,7.2l-1.7,4.3h6.8l1.7-4.8c0.2-0.3,0.5-1,0.5-1.9C86.3,4,86.1,3,85.4,2z"/>
<path class="st0" d="M91,14.3h9.2l-1.6,3.4h-9.1L91,14.3z M89.1,12.6L86,20h14.1l3.8-8.1H89.4L89.1,12.6z"/>
<polygon class="st1" points="107.4,0 105.2,6.1 113.5,6.1 104.4,31.1 106.9,31.1 116.8,3.8 108.6,3.8 109.1,2.3 216.4,2.3 216,3.8 
	118.8,3.8 111,25.2 110.7,26.1 110.3,27.2 118.3,27.2 129.6,11.3 131.2,11.3 130.9,27 137.1,27 142.3,11.3 144,11.3 141.8,18.6 
	144.6,18.6 152.9,11.3 155,11.3 145.2,20.1 148.4,27.2 156.4,27.2 167.7,11.3 169.3,11.3 169,27 175.4,27 181.2,11.3 183.2,11.3 
	186.7,26.4 193,11.3 194.7,11.3 187.4,28.8 184.9,28.8 181.9,14.5 176.5,28.5 167.4,28.5 167.4,25.4 159.6,25.4 157.5,28.7 
	146.8,28.7 143.5,20.8 140.8,20.8 138.4,28.5 129.3,28.5 129.3,25.4 121.7,25.4 119.2,28.7 109.9,28.7 109.1,31.1 120.4,31.1 
	122.9,27.8 127.8,27.8 127.8,30.9 139.8,30.9 142,23.1 142.4,23.1 145.8,31.1 158.8,31.1 160.7,27.8 165.8,27.8 165.8,30.9 
	177.4,30.9 181.3,20.2 183.6,30.9 188.6,30.9 188.8,30.4 197.4,9.6 191.8,9.6 187.1,21.1 184.7,9.6 180,9.6 174.2,25.3 170.8,25.3 
	171,9.6 166.8,9.6 155.4,25.5 149.7,25.5 147.5,20.7 159.5,9.6 152.2,9.6 144.2,16.6 146.4,9.6 140.8,9.6 135.5,25.3 132.7,25.3 
	133,9.6 128.7,9.6 117.4,25.5 113.4,25.5 120.3,6.1 217.5,6.1 219.6,0 "/>
<path class="st0" d="M127.7,22.4h-2l2-3L127.7,22.4z M122.4,24.1h6.9l0.1-9.5L122.4,24.1z"/>
<path class="st0" d="M165.8,22.2h-2l2-2.8L165.8,22.2z M167.5,14.6l-7,9.4h6.9L167.5,14.6z"/>
</svg>
